<svg width="197" height="20" viewBox="0 0 197 20" fill="none" xmlns="http://www.w3.org/2000/svg">
<g clip-path="url(#clip0_12_66)">
<path d="M196.968 18.0932C197.054 18.2899 196.96 18.5174 196.758 18.6012L193.466 19.9686C193.264 20.0527 193.03 19.9613 192.945 19.7643C192.858 19.5676 192.952 19.3401 193.153 19.2564L196.08 18.0407L194.832 15.1912C194.746 14.9945 194.84 14.767 195.042 14.683C195.244 14.5993 195.477 14.6906 195.563 14.8874L196.968 18.0931L196.968 18.0932ZM0 17.8875C0.617779 17.6375 1.2381 17.3899 1.86012 17.1452L2.15771 17.8633C1.53823 18.1071 0.921019 18.3536 0.3055 18.6027L0.000141239 17.8876L0 17.8875ZM5.61326 15.7078C6.86436 15.2424 8.12167 14.7873 9.38632 14.3426L9.65651 15.0708C8.39609 15.514 7.14358 15.9674 5.89786 16.4313L5.61326 15.7078ZM13.1879 13.0435C14.4574 12.622 15.7336 12.211 17.0166 11.81L17.2601 12.5473C15.9811 12.9468 14.7092 13.3567 13.4441 13.7764L13.188 13.0435H13.1879ZM20.8589 10.6448C22.1418 10.2678 23.4311 9.90076 24.7257 9.54331L24.9421 10.2886C23.6519 10.6445 22.3675 11.0104 21.0888 11.3862L20.8589 10.6448ZM28.6133 8.50536C29.9079 8.17116 31.2077 7.84644 32.5121 7.53177L32.7036 8.2838C31.4032 8.59723 30.1076 8.9207 28.8178 9.25381L28.6135 8.50536H28.6133ZM36.4306 6.6198C37.7374 6.32644 39.0488 6.04313 40.3643 5.76917L40.5305 6.52669C39.219 6.79955 37.9124 7.08218 36.6096 7.37471L36.4308 6.6198H36.4306ZM44.3074 4.98042C45.6237 4.7275 46.943 4.48434 48.2666 4.25068L48.4081 5.01288C47.0888 5.24558 45.7732 5.48819 44.4616 5.74028L44.3074 4.98042ZM52.2353 3.58104C53.5578 3.368 54.8835 3.16445 56.2127 2.97039L56.3302 3.73617C55.0052 3.92968 53.6835 4.13281 52.3648 4.34502L52.2353 3.58104ZM60.202 2.41752C61.5303 2.2434 62.8622 2.07823 64.1959 1.92282L64.2906 2.69176C62.9601 2.84689 61.6327 3.01138 60.3076 3.18494L60.2018 2.41752H60.202ZM68.1981 1.4856C69.5328 1.34945 70.8698 1.22278 72.2083 1.10505L72.2799 1.87633C70.9443 1.99364 69.6115 2.12017 68.2807 2.25592L68.1981 1.48546V1.4856ZM76.2207 0.781302C77.5584 0.682967 78.8978 0.593709 80.2389 0.513803L80.2873 1.28687C78.9502 1.3665 77.6141 1.45548 76.2803 1.55354L76.2209 0.78144L76.2207 0.781302ZM84.2605 0.301867C85.6009 0.240665 86.9418 0.188541 88.2842 0.145906L88.3104 0.920072C86.9719 0.962569 85.6342 1.01456 84.2981 1.07548L84.2605 0.301867ZM92.3111 0.0455075C93.6527 0.0211644 94.9945 0.00603593 96.3376 0.00012207L96.3408 0.774563C95.0023 0.780477 93.6638 0.795331 92.3251 0.819674L92.311 0.0455075H92.3111ZM100.364 0.0100244C101.707 0.0222647 103.05 0.0439947 104.392 0.0746643L104.373 0.849105C103.034 0.818436 101.696 0.796706 100.357 0.78419L100.364 0.0100244ZM108.417 0.194729C109.759 0.243966 111.1 0.302142 112.441 0.369807L112.399 1.14315C111.062 1.07576 109.725 1.01786 108.387 0.968758L108.417 0.194867V0.194729ZM116.46 0.599898C117.8 0.685718 119.14 0.780752 120.477 0.885001L120.414 1.6571C119.08 1.55313 117.745 1.45837 116.409 1.37255L116.46 0.59976V0.599898ZM124.49 1.22539C125.827 1.34807 127.162 1.4801 128.496 1.62107L128.41 2.39125C127.08 2.25042 125.748 2.1188 124.415 1.9964L124.49 1.22539ZM132.497 2.07273C133.83 2.23254 135.161 2.40143 136.49 2.57967L136.382 3.34682C135.057 3.16913 133.729 3.00051 132.4 2.84125L132.497 2.07259V2.07273ZM140.477 3.14313C141.805 3.34036 143.131 3.54707 144.453 3.76285L144.322 4.52684C143.003 4.31147 141.681 4.10558 140.357 3.90891L140.477 3.14313ZM148.419 4.43923C149.741 4.67428 151.061 4.91894 152.377 5.1731L152.223 5.93269C150.911 5.67949 149.594 5.43565 148.276 5.20088L148.419 4.43923ZM156.322 5.96419C157.636 6.23787 158.947 6.52091 160.253 6.81331L160.075 7.56794C158.773 7.27638 157.466 6.9943 156.156 6.72144L156.322 5.96419ZM164.174 7.72129C165.478 8.03417 166.779 8.35614 168.075 8.68786L167.873 9.43686C166.581 9.10637 165.284 8.78496 163.983 8.47359L164.174 7.72129ZM171.963 9.71468C173.259 10.0674 174.549 10.4297 175.835 10.8017L175.608 11.544C174.326 11.1731 173.04 10.8119 171.749 10.4604L171.963 9.71454L171.963 9.71468ZM179.684 11.9489C180.968 12.3422 182.246 12.7456 183.518 13.1586L183.267 13.8933C181.998 13.4818 180.724 13.0799 179.445 12.6873L179.684 11.9487V11.9489ZM187.329 14.4308C188.597 14.8654 189.859 15.3097 191.114 15.764L190.838 16.4902C189.586 16.0374 188.328 15.5942 187.066 15.1609L187.329 14.4306V14.4308ZM194.881 17.1638C195.506 17.402 196.129 17.6427 196.75 17.8858L196.454 18.6045C195.835 18.3621 195.214 18.1224 194.592 17.885L194.881 17.1638Z" fill="#A6A6A6"/>
</g>
<defs>
<clipPath id="clip0_12_66">
<rect width="197" height="20" fill="white"/>
</clipPath>
</defs>
</svg>
